<?xml version="1.0" encoding="iso-8859-1"?>
<!-- Generator: Adobe Illustrator 19.0.0, SVG Export Plug-In . SVG Version: 6.00 Build 0)  -->
<svg version="1.1" id="Layer_1" xmlns="http://www.w3.org/2000/svg" xmlns:xlink="http://www.w3.org/1999/xlink" x="0px" y="0px"
	 viewBox="0 0 512 512" style="enable-background:new 0 0 512 512;" xml:space="preserve">
<g>
	<g>
		<path d="M406,90h-32.763C367.024,72.578,350.53,60,331,60h-15c0-33.091-26.909-60-60-60s-60,26.909-60,60h-15
			c-19.53,0-36.024,12.578-42.237,30H106c-24.814,0-45,20.186-45,45v332c0,24.814,20.186,45,45,45h300c24.814,0,45-20.186,45-45V135
			C451,110.186,430.814,90,406,90z M181,90h32.754c10.356,0,17.587-10.247,14.136-20.01C226.615,66.401,226,63.12,226,60
			c0-16.538,13.462-30,30-30c16.538,0,30,13.462,30,30c0,3.12-0.615,6.401-1.89,9.99C280.659,79.753,287.89,90,298.246,90H331
			c8.276,0,15,6.724,15,15s-6.724,15-15,15H181c-8.276,0-15-6.724-15-15S172.724,90,181,90z M206.605,386.605l-30,30
			c-5.859,5.859-15.352,5.859-21.211,0l-30-30c-5.859-5.859-5.859-15.352,0-21.211s15.352-5.859,21.211,0L166,384.789l19.395-19.395
			c5.859-5.859,15.352-5.859,21.211,0S212.465,380.746,206.605,386.605z M206.605,296.605l-30,30
			c-5.859,5.859-15.352,5.859-21.211,0l-30-30c-5.859-5.859-5.859-15.352,0-21.211s15.352-5.859,21.211,0L166,294.789l19.395-19.395
			c5.859-5.859,15.352-5.859,21.211,0S212.465,290.746,206.605,296.605z M206.605,206.605l-30,30
			c-5.859,5.859-15.352,5.859-21.211,0l-30-30c-5.859-5.859-5.859-15.352,0-21.211s15.352-5.859,21.211,0L166,204.789l19.395-19.395
			c5.859-5.859,15.352-5.859,21.211,0S212.465,200.746,206.605,206.605z M376,421H256c-8.291,0-15-6.709-15-15
			c0-8.291,6.709-15,15-15h120c8.291,0,15,6.709,15,15C391,414.291,384.291,421,376,421z M376,331H256c-8.291,0-15-6.709-15-15
			c0-8.291,6.709-15,15-15h120c8.291,0,15,6.709,15,15C391,324.291,384.291,331,376,331z M376,241H256c-8.291,0-15-6.709-15-15
			s6.709-15,15-15h120c8.291,0,15,6.709,15,15S384.291,241,376,241z"/>
	</g>
</g>
<g>
</g>
<g>
</g>
<g>
</g>
<g>
</g>
<g>
</g>
<g>
</g>
<g>
</g>
<g>
</g>
<g>
</g>
<g>
</g>
<g>
</g>
<g>
</g>
<g>
</g>
<g>
</g>
<g>
</g>
</svg>
